<?xml version="1.0" standalone="no"?><!DOCTYPE svg PUBLIC "-//W3C//DTD SVG 1.1//EN" "http://www.w3.org/Graphics/SVG/1.1/DTD/svg11.dtd"><svg t="1551339265475" class="icon" style="" viewBox="0 0 1024 1024" version="1.1" xmlns="http://www.w3.org/2000/svg" p-id="5781" xmlns:xlink="http://www.w3.org/1999/xlink" width="200" height="200"><defs><style type="text/css"></style></defs><path d="M901.533 717.609c-13.949-37.112-33.141-71.999-57.117-103.809a417.626 417.626 0 0 0-89.704-87.731C692.372 481.222 620.089 454.938 544 449.18v-36.072c81.839-15.092 144.031-86.97 144.031-173.108 0-97.064-78.967-176.032-176.031-176.032-97.064 0-176.032 78.968-176.032 176.032 0 86.138 62.193 158.016 144.032 173.108v36.072c-76.089 5.758-148.372 32.042-210.71 76.888a417.672 417.672 0 0 0-89.705 87.73c-23.977 31.81-43.168 66.699-57.119 103.811C87.643 736.632 63.968 773.603 63.968 816c0 61.774 50.257 112.031 112.032 112.031S288.032 877.774 288.032 816c0-54.463-39.067-99.965-90.647-109.975C251.752 597.863 358.856 524.572 480 513.504v195.129c-46.231 13.804-80.032 56.709-80.032 107.367 0 61.774 50.257 112.031 112.032 112.031S624.031 877.774 624.031 816c0-50.658-33.801-93.563-80.031-107.367V513.504c121.145 11.068 228.249 84.359 282.616 192.521-51.58 10.011-90.647 55.513-90.647 109.976 0 61.774 50.257 112.031 112.031 112.031S960.031 877.774 960.031 816c0-42.397-23.675-79.368-58.498-98.391zM223.968 816c0 26.45-21.519 47.969-47.968 47.969S128.032 842.45 128.032 816 149.55 768.031 176 768.031 223.968 789.55 223.968 816z m176.064-576c0-61.74 50.229-111.968 111.968-111.968 61.739 0 111.969 50.229 111.969 111.968S573.739 351.968 512 351.968c-61.74 0-111.968-50.228-111.968-111.968z m159.937 576c0 26.45-21.519 47.969-47.969 47.969-26.45 0-47.968-21.519-47.968-47.969S485.55 768.031 512 768.031c26.45 0 47.969 21.519 47.969 47.969zM848 863.969c-26.45 0-47.969-21.519-47.969-47.969S821.55 768.031 848 768.031 895.969 789.55 895.969 816 874.45 863.969 848 863.969z" p-id="5782"></path></svg>