<?xml version="1.0" standalone="no"?><!DOCTYPE svg PUBLIC "-//W3C//DTD SVG 1.1//EN" "http://www.w3.org/Graphics/SVG/1.1/DTD/svg11.dtd"><svg t="1551339174938" class="icon" style="" viewBox="0 0 1024 1024" version="1.1" xmlns="http://www.w3.org/2000/svg" p-id="5310" xmlns:xlink="http://www.w3.org/1999/xlink" width="200" height="200"><defs><style type="text/css"></style></defs><path d="M64 464a60 60 0 0 1 3.84-21.44A92.16 92.16 0 0 0 64 468.8z" fill="#2c2c2c" p-id="5311"></path><path d="M952.64 512l-109.28-224H760a24 24 0 0 0 0 48h53.44l85.76 176H124.8l85.76-176h53.44a24 24 0 0 0 0-48h-83.36L71.36 512 64 528v368a64 64 0 0 0 64 64h768a64 64 0 0 0 64-64V528zM848 912H176a64 64 0 0 1-64-64V560h800v288a64 64 0 0 1-64 64z" fill="#2c2c2c" p-id="5312"></path><path d="M512 96a160 160 0 1 0 160 160A160 160 0 0 0 512 96m0-32a192 192 0 1 1-192 192A192 192 0 0 1 512 64z" fill="#2c2c2c" p-id="5313"></path><path d="M622.72 230.08a16 16 0 0 0 0-12.16 18.4 18.4 0 0 0-3.36-5.28l-33.92-33.92a16 16 0 1 0-22.72 22.72l6.72 6.56H416a16 16 0 0 0 0 32h192a16 16 0 0 0 5.92-1.28 16 16 0 0 0 8.8-8.64zM401.28 281.92a16 16 0 0 0 0 12.16 18.4 18.4 0 0 0 3.36 5.28l33.92 33.92a16 16 0 0 0 22.72-22.72l-6.72-6.56H608a16 16 0 0 0 0-32H416a16 16 0 0 0-5.92 1.28 16 16 0 0 0-8.8 8.64z" fill="#2c2c2c" p-id="5314"></path></svg>