<?xml version="1.0" standalone="no"?><!DOCTYPE svg PUBLIC "-//W3C//DTD SVG 1.1//EN" "http://www.w3.org/Graphics/SVG/1.1/DTD/svg11.dtd"><svg t="1551282542608" class="icon" style="" viewBox="0 0 1085 1024" version="1.1" xmlns="http://www.w3.org/2000/svg" p-id="3182" xmlns:xlink="http://www.w3.org/1999/xlink" width="211.9140625" height="200"><defs><style type="text/css"></style></defs><path d="M1051.858824 1023.969882 728.214588 924.882824 356.020706 1023.969882 32.376471 924.882824C14.486588 924.882824 0 910.095059 0 891.843765L0 33.008941C0 14.757647 14.486588 0 32.376471 0L356.020706 99.087059 728.214588 0 1051.858824 99.087059C1069.748706 99.087059 1084.235294 113.874824 1084.235294 132.096L1084.235294 990.960941C1084.235294 1009.182118 1069.748706 1023.969882 1051.858824 1023.969882ZM331.294118 948.705882 331.294118 143.058824 60.566588 60.295529 60.566588 870.219294 332.197647 953.253647C331.745882 951.777882 331.294118 950.302118 331.294118 948.705882ZM388.096 957.861647 692.705882 876.905412 692.705882 67.011765 391.529412 147.064471 391.529412 948.705882C391.529412 952.229647 390.144 955.301647 388.096 957.861647ZM1023.638588 153.750588 752.941176 71.017412 752.941176 880.911059 1023.638588 963.674353 1023.638588 153.750588Z" p-id="3183"></path></svg>