<?xml version="1.0" standalone="no"?><!DOCTYPE svg PUBLIC "-//W3C//DTD SVG 1.1//EN" "http://www.w3.org/Graphics/SVG/1.1/DTD/svg11.dtd"><svg t="1551338996326" class="icon" style="" viewBox="0 0 1046 1024" version="1.1" xmlns="http://www.w3.org/2000/svg" p-id="2524" xmlns:xlink="http://www.w3.org/1999/xlink" width="204.296875" height="200"><defs><style type="text/css"></style></defs><path d="M491.945339 4.552071c10.218586-6.037286 26.666456-6.101285 37.01304 0l483.345507 285.224408c10.239919 6.015952 10.346585 15.743875 0 21.845161L528.958379 596.824715c-10.239919 6.037286-26.666456 6.101285-37.034373 0L8.578499 311.600306c-10.239919-6.015952-10.346585-15.743875 0-21.84516L491.924006 4.552071z m36.949041 99.049882c-10.175919-6.015952-26.815788-5.973286-36.906375 0L176.427837 289.797812c-10.197253 6.015952-10.090587 15.829208 0 21.781161l315.560168 186.19586c10.197253 6.015952 26.815788 5.973286 36.906375 0l315.560168-186.19586c10.197253-6.015952 10.090587-15.829208 0-21.759827L528.89438 103.58062z m435.943215 373.586376a42.666329 42.666329 0 1 1 42.922327 73.748749L554.878174 814.508325c-23.487814 13.653225-56.319554 13.695892-79.871368 0L22.082392 550.937078a42.666329 42.666329 0 1 1 42.900994-73.748749l431.463251 251.070012c10.197253 5.93062 26.666456 5.973286 36.94904 0l431.441918-251.091345z m0 191.99848a42.666329 42.666329 0 1 1 42.922327 73.748749L554.878174 1006.506805c-23.487814 13.653225-56.319554 13.695892-79.871368 0L22.082392 742.935558a42.666329 42.666329 0 1 1 42.900994-73.748749l431.463251 251.070012c10.197253 5.93062 26.666456 5.973286 36.94904 0l431.441918-251.091345z" p-id="2525"></path></svg>