<?xml version="1.0" standalone="no"?><!DOCTYPE svg PUBLIC "-//W3C//DTD SVG 1.1//EN" "http://www.w3.org/Graphics/SVG/1.1/DTD/svg11.dtd"><svg t="1551284072400" class="icon" style="" viewBox="0 0 1024 1024" version="1.1" xmlns="http://www.w3.org/2000/svg" p-id="10828" xmlns:xlink="http://www.w3.org/1999/xlink" width="200" height="200"><defs><style type="text/css"></style></defs><path d="M483.627301 63.933101 236.600161 63.933101C117.989763 61.934584 63.899844 111.3746 63.899844 162.53991l0 25.923416 0 658.96519 0 0.876973c9.618055 62.835094 84.009346 111.050212 172.700317 111.050212l722.713073 0L959.313234 847.427492 959.313234 707.519022 959.313234 63.933101 483.627301 63.933101zM447.189414 128.090307l0.460488 255.635191-63.671135-39.97341-64.246233 39.97341L319.732533 127.891785 447.189414 128.090307zM895.162168 895.205659 236.600161 895.205659c-62.20883 0-108.550275-23.458271-108.550275-60.745503 0-37.287231 46.341445-66.884316 108.550275-66.884316l658.562007 0L895.162168 895.205659zM236.600161 704.040804c-45.032636 0-77.757968 16.013719-108.550275 36.629245L128.049886 188.335413l1.499144-6.808056c6.371104-29.605272 20.199041-53.634548 126.225843-53.634548l0 359.190709 128.204917-82.974783 127.622656 82.622766L511.602446 127.673821l383.559723 0 0 576.366983L236.600161 704.040804z" p-id="10829"></path></svg>