<?xml version="1.0" standalone="no"?><!DOCTYPE svg PUBLIC "-//W3C//DTD SVG 1.1//EN" "http://www.w3.org/Graphics/SVG/1.1/DTD/svg11.dtd"><svg t="1551284362286" class="icon" style="" viewBox="0 0 1024 1024" version="1.1" xmlns="http://www.w3.org/2000/svg" p-id="4771" xmlns:xlink="http://www.w3.org/1999/xlink" width="200" height="200"><defs><style type="text/css"></style></defs><path d="M896 938.656H128a85.6 85.6 0 0 1-85.344-85.344V255.968c0-72.544 55.456-128 128-128h384v85.344h-384c-25.6 0-42.656 17.056-42.656 42.656s17.056 42.656 42.656 42.656H896c46.944 0 85.344 38.4 85.344 85.344v469.344c0 46.944-38.4 85.344-85.344 85.344z m-768-563.2v477.856h768V383.968H170.656c-17.056 0-29.856-4.256-42.656-8.544z" p-id="4772"></path><path d="M469.344 785.056L281.6 597.312l59.744-59.744 128 128 213.344-213.344 59.744 59.744zM853.344 384c-17.056 0-29.856-8.544-38.4-25.6L704 140.8 230.4 379.744c-17.056 8.544-42.656 0-55.456-21.344-8.544-17.056 0-42.656 21.344-55.456l512-256c21.344-8.544 46.944 0 55.456 17.056l128 256c8.544 21.344 0 46.944-17.056 55.456-8.544 8.544-12.8 8.544-21.344 8.544z" p-id="4773"></path></svg>